HIERARCHY
ROOT root
{
	OFFSET 0.000000 0.000000 0.000000
	CHANNELS 6 Xposition Yposition Zposition Zrotation Yrotation Xrotation
	JOINT lhip
	{
		OFFSET 0.058581 -0.082280 -0.017664
		CHANNELS 3 Zrotation Yrotation Xrotation
		JOINT lknee
		{
			OFFSET 0.043451 -0.386469 0.008037
			CHANNELS 3 Zrotation Yrotation Xrotation
			JOINT lankle
			{
				OFFSET -0.014790 -0.426874 -0.037428
				CHANNELS 3 Zrotation Yrotation Xrotation
				JOINT ltoe
				{
					OFFSET 0.041054 -0.060286 0.122042
					CHANNELS 3 Zrotation Yrotation Xrotation
					End Site
					{
						OFFSET 0.000000 0.000000 0.000000
					}
				}
			}
		}
	}
	JOINT rhip
	{
		OFFSET -0.060310 -0.090513 -0.013543
		CHANNELS 3 Zrotation Yrotation Xrotation
		JOINT rknee
		{
			OFFSET -0.043257 -0.383688 -0.004843
			CHANNELS 3 Zrotation Yrotation Xrotation
			JOINT rankle
			{
				OFFSET 0.019056 -0.420046 -0.034562
				CHANNELS 3 Zrotation Yrotation Xrotation
				JOINT rtoe
				{
					OFFSET -0.034840 -0.062106 0.130323
					CHANNELS 3 Zrotation Yrotation Xrotation
					End Site
					{
						OFFSET 0.000000 0.000000 0.000000
					}
				}
			}
		}
	}
	JOINT lowerback
	{
		OFFSET 0.004439 0.124404 -0.038385
		CHANNELS 3 Zrotation Yrotation Xrotation
		JOINT upperback
		{
			OFFSET 0.004488 0.137956 0.026820
			CHANNELS 3 Zrotation Yrotation Xrotation
			JOINT chest
			{
				OFFSET -0.002265 0.056032 0.002855
				CHANNELS 3 Zrotation Yrotation Xrotation
				JOINT lowerneck
				{
					OFFSET -0.013390 0.211636 -0.033468
					CHANNELS 3 Zrotation Yrotation Xrotation
					JOINT upperneck
					{
						OFFSET 0.010113 0.088937 0.050410
						CHANNELS 3 Zrotation Yrotation Xrotation
						End Site
						{
							OFFSET 0.000000 0.000000 0.000000
						}
					}
				}
				JOINT lclavicle
				{
					OFFSET 0.071702 0.114000 -0.018898
					CHANNELS 3 Zrotation Yrotation Xrotation
					JOINT lshoulder
					{
						OFFSET 0.122921 0.045205 -0.019046
						CHANNELS 3 Zrotation Yrotation Xrotation
						JOINT lelbow
						{
							OFFSET 0.255332 -0.015649 -0.022946
							CHANNELS 3 Zrotation Yrotation Xrotation
							JOINT lwrist
							{
								OFFSET 0.265709 0.012698 -0.007375
								CHANNELS 3 Zrotation Yrotation Xrotation
								End Site
								{
									OFFSET 0.000000 0.000000 0.000000
								}
							}
						}
					}
				}
				JOINT rclavicle
				{
					OFFSET -0.082954 0.112472 -0.023707
					CHANNELS 3 Zrotation Yrotation Xrotation
					JOINT rshoulder
					{
						OFFSET -0.113228 0.046853 -0.008472
						CHANNELS 3 Zrotation Yrotation Xrotation
						JOINT relbow
						{
							OFFSET -0.260127 -0.014369 -0.031269
							CHANNELS 3 Zrotation Yrotation Xrotation
							JOINT rwrist
							{
								OFFSET -0.269108 0.006794 -0.006027
								CHANNELS 3 Zrotation Yrotation Xrotation
								End Site
								{
									OFFSET 0.000000 0.000000 0.000000
								}
							}
						}
					}
				}
			}
		}
	}
}
MOTION
Frames: 10
Frame Time: 0.033333
-0.107618 0.197622 1.013144 12.692602 0.665474 93.715337 -2.154146 -6.681739 -10.780604 -10.261755 -7.587088 22.374426 0.433832 4.415004 -11.905313 0.000000 -0.000000 0.000000 -1.284472 4.882643 -30.251425 2.394914 -5.993948 36.144071 6.770107 -4.366161 4.707670 0.000000 -0.000000 0.000000 -0.835079 0.900904 9.935985 6.246977 3.215806 10.764261 0.206785 0.919413 -4.084188 6.561752 3.801619 17.980769 0.176909 -10.117098 -7.156831 -8.873553 29.266305 -4.304231 -38.836577 -1.756452 -1.241678 150.217265 -34.105444 -120.966014 -13.477307 -14.454871 10.102424 18.422793 -9.734370 1.379803 57.889974 2.178154 14.717636 -25.305529 54.825692 4.536509 5.612110 5.833709 2.016230 
-0.111879 0.187401 1.009137 13.522045 -0.348409 94.476482 -1.592577 -6.493211 -15.365806 -11.886877 -4.019862 30.126990 -1.585860 5.035951 -13.240100 0.000000 -0.000000 0.000000 -0.691135 4.875136 -27.534108 1.975241 -5.445820 31.846756 2.735827 -4.909470 -0.197643 0.000000 -0.000000 0.000000 -1.010264 1.673780 9.112738 5.598482 2.567200 10.907965 -0.096206 0.838301 -5.023920 6.301490 3.516827 18.261634 0.677347 -10.272807 -7.844070 -9.135162 29.775566 -3.714562 -37.776445 -2.987387 -1.816025 148.381545 -34.611773 -119.526133 -13.896410 -14.916525 10.278943 18.176675 -10.264184 1.535165 59.508884 1.990197 14.952707 -23.286447 50.774858 6.411262 6.029861 5.355581 0.566764 
-0.116395 0.180418 0.996265 14.273016 -1.411968 95.191414 -1.370507 -6.930726 -22.239515 -11.514133 1.595238 43.799319 -0.354145 9.524990 -16.582902 0.000000 -0.000000 0.000000 -0.384558 4.644481 -27.363580 1.769297 -2.971783 31.813205 -0.643194 -6.688859 -6.613955 0.000000 -0.000000 0.000000 -1.081132 3.050656 8.548840 4.803597 2.254124 10.104264 -0.137373 0.762341 -5.404495 5.588039 3.017193 17.616339 0.903755 -10.808476 -7.014051 -9.120295 28.777739 -3.722015 -35.332234 -4.045814 -3.169652 145.996438 -35.530173 -118.013357 -13.797126 -15.147691 9.839282 17.675657 -9.810395 1.376085 60.618671 0.515049 14.581209 -21.103846 46.963285 7.259224 6.199971 4.810408 -2.280313 
-0.120701 0.176412 0.981001 14.625572 -1.429456 94.521749 -0.760190 -7.832045 -28.048236 -9.456762 5.168877 60.757809 3.003492 12.134099 -20.839992 0.000000 -0.000000 0.000000 0.423133 4.989673 -27.551894 2.007179 -1.905991 34.306391 -3.095863 -8.730746 -10.861065 0.000000 -0.000000 0.000000 -0.282191 4.266655 9.859147 4.471702 2.799517 9.200124 0.002588 0.743104 -5.237226 5.164502 2.913392 14.976712 -0.174290 -12.111067 -3.921980 -9.500155 27.219113 -4.859961 -33.348925 -5.044447 -4.220933 143.273745 -36.629250 -116.705263 -14.243123 -15.531021 9.428516 17.787027 -8.363969 0.258779 59.919848 -1.263577 14.556841 -19.110264 43.081266 7.193355 6.996987 4.626927 -4.582659 
-0.123417 0.174560 0.972159 13.872911 -0.199584 92.444866 0.867657 -8.787136 -31.510373 -8.531640 7.139418 75.881556 4.279238 12.427901 -21.826228 0.000000 -0.000000 0.000000 2.195213 6.205330 -26.141432 2.338638 -1.609562 35.762366 -4.996332 -10.076559 -11.542833 0.000000 -0.000000 0.000000 1.589000 4.826460 13.185134 4.474353 4.008147 8.272603 0.102802 1.072589 -4.600048 5.041633 3.142195 12.814446 -1.851197 -12.891670 -1.916932 -9.790436 26.512457 -5.481363 -33.939096 -6.123177 -4.954697 141.339048 -37.178054 -115.975441 -16.136473 -15.669821 9.915980 17.435998 -7.050325 -0.332211 58.733576 -0.566538 14.090734 -16.175660 38.063897 9.677704 10.637538 4.612812 -3.142557 
-0.124881 0.171448 0.974990 13.124296 0.188550 91.344353 1.560141 -11.220456 -35.397058 -8.656554 9.299584 86.848792 5.019058 13.350566 -18.598660 0.000000 -0.000000 0.000000 2.855857 6.751049 -23.741837 2.300791 -1.540994 33.831382 -5.722606 -9.906987 -10.389291 0.000000 -0.000000 0.000000 1.866254 5.944968 14.663940 5.008873 3.954009 8.930156 0.416541 1.331207 -5.725387 4.630569 2.550883 14.666898 -1.817151 -12.398463 -3.094638 -10.565851 26.234959 -5.028775 -34.793133 -6.095561 -4.902668 141.165425 -36.977011 -115.791168 -17.185770 -15.491713 11.087540 17.542419 -6.261422 -0.003737 57.943717 0.210633 13.890772 -15.364959 33.551102 12.056003 13.247744 3.035259 1.451183 
-0.125336 0.167546 0.985250 13.046638 -0.843154 91.070511 1.332607 -15.124417 -39.742352 -8.895632 12.096749 93.019391 5.922374 13.628858 -18.311398 0.000000 -0.000000 0.000000 2.315382 6.119446 -21.185475 1.848861 -0.596609 30.153466 -5.746213 -9.703237 -8.210665 0.000000 -0.000000 0.000000 0.768649 7.695673 14.590454 5.020191 2.780354 9.509856 0.711234 1.253679 -6.092427 4.680388 1.140411 16.008176 -0.795480 -11.303368 -3.321700 -11.182899 26.358803 -4.670939 -35.288199 -6.031230 -4.089850 141.878242 -36.927270 -116.008866 -17.243828 -15.359863 12.036862 18.299307 -6.777841 -0.324079 58.200102 0.376468 14.261824 -16.057573 30.536976 11.716464 13.655407 1.627229 4.021802 
-0.124619 0.165476 0.998881 12.703004 -2.293878 91.576550 0.883699 -17.918735 -44.667322 -8.736091 13.745514 93.628489 6.053733 12.487278 -18.361243 0.000000 -0.000000 0.000000 1.151718 5.429392 -19.547382 1.234322 0.417882 26.245673 -4.848675 -9.022622 -5.649751 0.000000 -0.000000 0.000000 -0.408220 9.072503 13.799734 4.481228 1.831892 10.231271 0.527706 1.144844 -6.307635 4.834767 0.143712 16.852634 0.545966 -10.605027 -3.777021 -11.246373 26.925044 -4.192378 -35.841749 -5.595654 -2.949871 142.508375 -37.075328 -116.275393 -16.780048 -15.571470 12.187069 18.508317 -7.894313 -0.294144 59.560943 0.340873 14.523544 -16.678595 29.160434 9.142709 13.235042 1.453801 2.315516 
-0.124305 0.164112 1.012821 11.891675 -3.260941 91.628190 0.551168 -18.931675 -47.817481 -7.481085 13.443972 88.884534 5.755368 11.022152 -18.051817 0.000000 -0.000000 0.000000 0.100350 5.558009 -17.744497 0.843879 0.148384 22.760967 -3.141262 -7.984318 -2.665465 0.000000 -0.000000 0.000000 -0.904925 9.625585 14.009394 3.801100 1.634506 10.899562 0.083414 1.209474 -6.249607 5.052606 0.226963 17.164591 1.405681 -10.634926 -5.397000 -11.449736 27.720551 -4.340175 -36.234225 -4.815478 -1.696310 142.811472 -37.255458 -116.227346 -16.059179 -16.245643 11.851620 18.354071 -8.767713 0.038064 60.929907 0.281263 14.925534 -16.991608 29.556528 6.945107 11.925369 1.935726 -0.203903 
-0.124761 0.163822 1.023635 10.070889 -3.897228 90.948254 0.183221 -18.429116 -48.096557 -6.771650 12.283310 78.621922 6.014753 11.462745 -18.227647 0.000000 -0.000000 0.000000 -0.460015 5.689257 -16.427061 0.697140 -0.153274 21.357792 -1.392293 -7.099307 -0.456579 0.000000 -0.000000 0.000000 -1.069213 10.160446 15.715205 3.080254 2.066059 11.270359 -0.249507 1.587300 -5.994984 5.156619 0.882121 16.526842 1.533534 -10.783721 -7.327106 -11.765300 28.399746 -5.099218 -36.398906 -3.610148 -0.810939 143.090982 -37.460821 -116.339703 -14.202267 -16.984847 11.197313 18.395094 -8.892820 0.122304 61.201492 0.045957 15.507878 -16.823708 31.217536 6.768165 10.237069 2.448283 -1.356892 
